<svg xmlns="http://www.w3.org/2000/svg" xmlns:xlink="http://www.w3.org/1999/xlink" version="1.1" x="0px" y="0px" viewBox="0 0 64 80" style="enable-background:new 0 0 64 64;" xml:space="preserve"><g><path d="M58,11H47V5c0-2.206-1.794-4-4-4H21c-2.206,0-4,1.794-4,4v6H6c-2.757,0-5,2.243-5,5v36c0,2.757,2.243,5,5,5h12v4h-4   c-0.552,0-1,0.447-1,1s0.448,1,1,1h36c0.552,0,1-0.447,1-1s-0.448-1-1-1h-4v-4h12c2.757,0,5-2.243,5-5V16   C63,13.243,60.757,11,58,11z M45,37H19V9h26V37z M19,39h26v4c0,1.103-0.897,2-2,2H21c-1.103,0-2-0.897-2-2V39z M21,3h22   c1.103,0,2,0.897,2,2v2H19V5C19,3.897,19.897,3,21,3z M6,13h11v30c0,2.206,1.794,4,4,4h22c2.206,0,4-1.794,4-4V13h11   c1.654,0,3,1.346,3,3v33H3V16C3,14.346,4.346,13,6,13z M44,61H20v-4h24V61z M58,55H6c-1.654,0-3-1.346-3-3v-1h58v1   C61,53.654,59.654,55,58,55z"/><path d="M32,34c6.065,0,11-4.935,11-11s-4.935-11-11-11s-11,4.935-11,11S25.935,34,32,34z M24.58,17.917   c0.279,0.173,0.99,0.586,2.025,1.002c-0.28,0.944-0.485,1.974-0.564,3.081h-2.982C23.226,20.497,23.764,19.105,24.58,17.917z    M32,14c0.128,0,0.253,0.014,0.38,0.019c0.302,0.318,1.47,1.624,2.402,3.639C33.948,17.859,33.01,18,32,18   c-1.004,0-1.94-0.141-2.775-0.343c0.932-2.009,2.096-3.32,2.396-3.638C31.747,14.014,31.872,14,32,14z M40.941,22h-2.982   c-0.079-1.107-0.283-2.137-0.564-3.081c1.035-0.416,1.745-0.829,2.025-1.002C40.236,19.105,40.774,20.497,40.941,22z M39.42,28.083   c-0.279-0.173-0.99-0.586-2.025-1.002c0.28-0.944,0.485-1.974,0.564-3.081h2.982C40.774,25.503,40.236,26.895,39.42,28.083z M32,32   c-0.128,0-0.253-0.014-0.38-0.019c-0.302-0.318-1.47-1.624-2.402-3.639C30.052,28.141,30.99,28,32,28   c1.004,0,1.94,0.141,2.775,0.343c-0.932,2.009-2.096,3.32-2.396,3.638C32.253,31.986,32.128,32,32,32z M28.587,31.323   c-0.992-0.408-1.89-0.992-2.667-1.708c0.297-0.167,0.767-0.408,1.376-0.656C27.702,29.876,28.155,30.666,28.587,31.323z M35.957,24   c-0.074,0.875-0.246,1.694-0.47,2.455C34.457,26.19,33.279,26,32,26c-1.28,0-2.459,0.19-3.49,0.456   c-0.223-0.76-0.394-1.579-0.468-2.456H35.957z M28.043,22c0.074-0.875,0.246-1.694,0.47-2.455C29.543,19.81,30.721,20,32,20   c1.28,0,2.459-0.19,3.49-0.456c0.223,0.76,0.394,1.579,0.468,2.456H28.043z M36.703,28.964c0.608,0.247,1.078,0.488,1.376,0.653   c-0.777,0.715-1.675,1.298-2.666,1.706C35.844,30.667,36.297,29.879,36.703,28.964z M36.705,17.04   c-0.407-0.917-0.86-1.706-1.292-2.364c0.992,0.408,1.89,0.992,2.667,1.708C37.784,16.551,37.314,16.792,36.705,17.04z    M27.297,17.036c-0.608-0.247-1.078-0.488-1.376-0.653c0.777-0.715,1.675-1.298,2.666-1.706   C28.156,15.333,27.703,16.121,27.297,17.036z M26.041,24c0.079,1.107,0.283,2.137,0.564,3.081   c-1.035,0.416-1.745,0.829-2.025,1.002c-0.816-1.188-1.354-2.58-1.521-4.083H26.041z"/><path d="M28,43h8c0.552,0,1-0.447,1-1s-0.448-1-1-1h-8c-0.552,0-1,0.447-1,1S27.448,43,28,43z"/><path d="M8,32c-1.654,0-3,1.346-3,3s1.346,3,3,3c0.078,0,0.152-0.017,0.229-0.023l1.712,3.852C9.364,42.376,9,43.144,9,44   c0,1.654,1.346,3,3,3s3-1.346,3-3s-1.346-3-3-3c-0.078,0-0.152,0.017-0.229,0.023l-1.712-3.852C10.636,36.624,11,35.856,11,35   c0-0.856-0.364-1.624-0.941-2.171l1.712-3.852C11.848,28.983,11.922,29,12,29c1.654,0,3-1.346,3-3s-1.346-3-3-3   c-0.124,0-0.243,0.022-0.363,0.037l-1.48-2.96C10.676,19.537,11,18.807,11,18c0-1.654-1.346-3-3-3s-3,1.346-3,3s1.346,3,3,3   c0.124,0,0.243-0.022,0.363-0.037l1.48,2.96C9.324,24.463,9,25.193,9,26c0,0.856,0.364,1.624,0.941,2.171l-1.712,3.852   C8.152,32.017,8.078,32,8,32z M13,44c0,0.552-0.449,1-1,1s-1-0.448-1-1s0.449-1,1-1S13,43.448,13,44z M13,26c0,0.552-0.449,1-1,1   s-1-0.448-1-1s0.449-1,1-1S13,25.448,13,26z M7,18c0-0.552,0.449-1,1-1s1,0.448,1,1s-0.449,1-1,1S7,18.552,7,18z M7,35   c0-0.552,0.449-1,1-1s1,0.448,1,1s-0.449,1-1,1S7,35.552,7,35z"/><path d="M51,30.771c0,1.851-0.841,3.571-2.307,4.721c-0.435,0.341-0.51,0.97-0.169,1.404c0.197,0.252,0.491,0.383,0.787,0.383   c0.216,0,0.434-0.069,0.617-0.213C51.88,35.535,53,33.24,53,30.771c0-2.47-1.12-4.765-3.073-6.295   c-0.434-0.34-1.062-0.264-1.404,0.17c-0.341,0.435-0.265,1.063,0.17,1.404C50.159,27.199,51,28.92,51,30.771z"/><path d="M57,30.771c0,1.338-0.219,2.65-0.652,3.902c-0.18,0.521,0.097,1.091,0.619,1.271C57.075,35.982,57.185,36,57.293,36   c0.415,0,0.802-0.26,0.945-0.674C58.744,33.865,59,32.332,59,30.771c0-4.322-1.96-8.338-5.378-11.017   c-0.433-0.341-1.062-0.264-1.404,0.17c-0.341,0.435-0.265,1.063,0.17,1.404C55.319,23.626,57,27.068,57,30.771z"/><path d="M54.967,37.441c-0.708,1.054-1.576,1.985-2.579,2.771c-0.435,0.341-0.511,0.97-0.17,1.404   C52.416,41.868,52.709,42,53.006,42c0.216,0,0.434-0.069,0.617-0.213c1.167-0.915,2.178-2.002,3.004-3.229   c0.309-0.458,0.187-1.08-0.271-1.389C55.897,36.862,55.275,36.984,54.967,37.441z"/></g><text x="0" y="79" fill="#000000" font-size="5px" font-weight="bold" font-family="'Helvetica Neue', Helvetica, Arial-Unicode, Arial, Sans-serif">Created by Eucalyp</text><text x="0" y="84" fill="#000000" font-size="5px" font-weight="bold" font-family="'Helvetica Neue', Helvetica, Arial-Unicode, Arial, Sans-serif">from the Noun Project</text></svg>